<?xml version="1.0" standalone="no"?>
<svg viewBox="0 0 200 200" xmlns="http://www.w3.org/2000/svg">
  <path fill="#A62B2B" d="M34.6,-60C48.3,-52,65.3,-49.7,65.7,-40.7C66.2,-31.7,50,-15.8,44.3,-3.3C38.5,9.2,43,18.3,40.1,23.1C37.2,27.8,26.8,28.2,18.9,37.9C11,47.6,5.5,66.6,1.3,64.4C-3,62.2,-5.9,38.8,-14.6,29.5C-23.3,20.3,-37.7,25.2,-47.2,22.6C-56.6,20.1,-61,10,-55.7,3.1C-50.4,-3.9,-35.2,-7.7,-29.8,-17.2C-24.3,-26.6,-28.5,-41.5,-25.1,-55.5C-21.7,-69.5,-10.9,-82.5,-0.2,-82.2C10.4,-81.8,20.9,-68,34.6,-60Z" transform="translate(100 100)" />
</svg>
